Coordinates

Units are S.I. units (second, meters, Newtons, ...)
If the header above contains a line with 'inDegrees', this indicates whether rotational values are in degrees (yes) or radians (no).

inDegrees=no
nColumns=21
nRows=17
DataType=double
version=3
OpenSimVersion=4.6-2026-03-31-d6972f9e6
endheader
time	/jointset/ground_pelvis/pelvis_tilt/value	/jointset/ground_pelvis/pelvis_list/value	/jointset/ground_pelvis/pelvis_rotation/value	/jointset/ground_pelvis/pelvis_tx/value	/jointset/ground_pelvis/pelvis_ty/value	/jointset/ground_pelvis/pelvis_tz/value	/jointset/hip_r/hip_flexion_r/value	/jointset/hip_r/hip_adduction_r/value	/jointset/hip_r/hip_rotation_r/value	/jointset/walker_knee_r/knee_angle_r/value	/jointset/patellofemoral_r/knee_angle_r_beta/value	/jointset/ankle_r/ankle_angle_r/value	/jointset/subtalar_r/subtalar_angle_r/value	/jointset/hip_l/hip_flexion_l/value	/jointset/hip_l/hip_adduction_l/value	/jointset/hip_l/hip_rotation_l/value	/jointset/walker_knee_l/knee_angle_l/value	/jointset/patellofemoral_l/knee_angle_l_beta/value	/jointset/ankle_l/ankle_angle_l/value	/jointset/subtalar_l/subtalar_angle_l/value
139.996	-0.1257021375955971	-0.03076485100613113	-0.1258678108804465	1.199434070000081	1.015638400000057	-0.2932478300000172	0.4602807430865007	0.08570426219402497	0.05186264617137643	0.2366759072874589	0.2366759100000116	-0.09894538774371618	-0.02453028114713334	-0.0915948093314975	-0.03616303953988634	-0.09119705333282448	0.9367667283023638	0.9367667300000502	-0.5450553888157048	-0.5891624057980496
140	-0.1218968150270494	-0.03259536933686703	-0.1282751776162014	1.199056874242298	1.012802072806077	-0.2927369487869251	0.4597625077691259	0.08892104082359713	0.05199362847671901	0.2662487970026277	0.2662487994136657	-0.07610892781616715	-0.03296224160330099	-0.08133057065510846	-0.04037779330397145	-0.09168588537105989	0.974667809993143	0.9746678115392484	-0.5383181896876031	-0.589185995644839
140.004	-0.1181615752818123	-0.0344116853982084	-0.1307392045912111	1.198665430726128	1.009944786609191	-0.2922190013067596	0.4593770988788914	0.09216944248116464	0.05211743611938568	0.2959254284766998	0.2959254305964932	-0.05329545605923883	-0.04142906217743656	-0.07097050376034714	-0.04465280312241116	-0.09223270019180546	1.012509364349302	1.012509365750661	-0.5315733745104098	-0.589162821393756
140.008	-0.1145652906638246	-0.03620188661589605	-0.1333131601058577	1.198245805594746	1.007046824131391	-0.2916872022616405	0.4592494698085793	0.09548126849754587	0.05222928595832124	0.3257981372249298	0.325798139072574	-0.03053148068850768	-0.04996538764907184	-0.06041808564578197	-0.04904922887857093	-0.09289034937262947	1.050233710622062	1.050233711891185	-0.5248131664524394	-0.5890492014651166
140.012	-0.1111745001445941	-0.03795831791211499	-0.1360436499910976	1.19778469006638	1.004090868547418	-0.291135336007203	0.4594895122915069	0.09888837864538468	0.05232865839727845	0.3559374202157162	0.3559374218165959	-0.007850105253626415	-0.05860490507267052	-0.04957554614303578	-0.05362960380400532	-0.09370157374711022	1.087786467963981	1.087786469117043	-0.5180296152393975	-0.5888071951565145
140.016	-0.1080522723293772	-0.03967903201427522	-0.1389675998692837	1.197269710727257	1.00106302873465	-0.2905580533132824	0.4601858700132417	0.1024221094316978	0.05242031555474729	0.3863831910511109	0.3863831924338041	0.01470666540514691	-0.0673788356094126	-0.03834380097962133	-0.05845758688611603	-0.09469442645599103	1.125117244462256	1.125117245516715	-0.5112149383110878	-0.5884066522430018
140.02	-0.1052568667977823	-0.04136863665615331	-0.1421096206678647	1.196689740563575	0.9979537069848013	-0.2899511690402753	0.4614008122627378	0.1061121918521793	0.05251433927946002	0.4171381671661551	0.4171381683593175	0.03708659533480299	-0.07631370445324898	-0.02662324009953198	-0.06359687221293901	-0.09587840382867982	1.162179324056756	1.162179325029048	-0.5043623463534259	-0.5878266413313032
140.024	-0.1028401007147773	-0.0430384971637657	-0.1454798706666868	1.196035205620823	0.9947582909372206	-0.2893119493605149	0.4631662218786602	0.1099851921525775	0.05262521263694966	0.4481636642427354	0.4481636652724719	0.05922698869109744	-0.08542858243099222	-0.01431552506593137	-0.0691092313863895	-0.09724155319748606	1.198928329735634	1.198928330639195	-0.4974672950369215	-0.5870562644093872
140.028	-0.1008454502922797	-0.04470628536654868	-0.149072503643038	1.195298375336138	0.9914776515865548	-0.2886393746283944	0.4654807963118978	0.1140625478063182	0.05277008723929634	0.4793779286239008	0.4793779295120423	0.08105559091506663	-0.09473208204240623	-0.001326318675877579	-0.07505175376431041	-0.09874876090987622	1.235320028389132	1.235320029232871	-0.4905289679839592	-0.586094866760079
140.032	-0.09930599263006205	-0.04639491273742781	-0.1528647690309828	1.194473621491327	0.9881184328316543	-0.2879343618788016	0.4683085445640244	0.1183583299070934	0.05296648043279146	0.5106569755852892	0.5106569763487454	0.1024925264165821	-0.104219458972976	0.01243126826410129	-0.08147344294097052	-0.1003413607528179	1.27130755426735	1.271307555054627	-0.483551755392866	-0.584951687091776
140.036	-0.09824233588886626	-0.04813093650835754	-0.1568168076399776	1.193557630824762	0.9846931240805361	-0.2871999296889032	0.471578612799382	0.122876919590545	0.05322971118122928	0.5418377430561515	0.5418377437071482	0.1234530594906597	-0.113870201703574	0.02703279760513645	-0.08841141280352759	-0.1019381391788654	1.306838378645483	1.306838379373671	-0.4765465066052408	-0.5836450335098928
140.04	-0.09766071086728978	-0.04994256666925658	-0.1608721603098537	1.192549557665004	0.9812199135861931	-0.2864412890397235	0.4751864238951321	0.1276108183237698	0.0535703907540979	0.5727232464748018	0.5727232470215855	0.1438508847493796	-0.1236464599343272	0.04253851064291136	-0.09588698460829188	-0.1034377394668431	1.341851363775947	1.341851364436669	-0.4695313708874629	-0.5822010884236307
140.044	-0.09755142252337405	-0.05185741511904047	-0.1649589710535139	1.191451104417153	0.9777223247876965	-0.2856658475405304	0.4789960990629746	0.1325388035013404	0.05399223828882806	0.6030893415873277	0.603089342034949	0.1636016305215796	-0.1334925580810921	0.058989570160367	-0.1039020020879109	-0.1047223739933724	1.376274224079514	1.376274224659673	-0.4625320809976304	-0.5806524233693772
140.048	-0.09788787922075405	-0.05390012411831459	-0.1689918262060413	1.190266519997689	0.9742286424241945	-0.2848831201722506	0.4828441291668366	0.1376246038361894	0.05449041641660896	0.6326926586641231	0.6326926590151765	0.1826262724280524	-0.1433356972650905	0.07640490503671694	-0.1124356626750951	-0.1056626544033367	1.410021677323039	1.410021677806555	-0.4555815785034809	-0.5790362636276032
140.052	-0.09862638983863971	-0.05609001800791324	-0.1728741412928281	1.189002510456233	0.9707711438214994	-0.2841045458053955	0.4865442210514807	0.1428162368996515	0.05505050185177206	0.6612792462735748	0.6612792465290375	0.200854170551953	-0.1530878207863327	0.09477897382554705	-0.1214421389838738	-0.1061232747705791	1.442994494274402	1.442994494644376	-0.4487189437833893	-0.5773925347967517
140.056	-0.09970684540456803	-0.05843893896805286	-0.176500991356374	1.187668061666923	0.9673851626613349	-0.2833432138722921	0.4898931580015163	0.1480461288839721	0.0556481365847273	0.6885934501040932	0.6885934502643813	0.2182254647308685	-0.1626485308006604	0.1140806497029709	-0.1308492379282251	-0.105969240326356	1.475079557478867	1.475079557719765	-0.4419876782641414	-0.5757617553563666
140.06	-0.1010543351473056	-0.06094942133982367	-0.179762266732491	1.186274179458483	0.9641080215074157	-0.2826135103432658	0.4926774537167726	0.1532320932303177	0.05624934664562422	0.7143865689180992	0.7143865689841956	0.2346926190510624	-0.171908878216208	0.1342533328637776	-0.1405582848413061	-0.1050723003707139	1.506150948294172	1.50615094839374	-0.4354334631400743	-0.5741828565113264
